<?xml version="1.0" encoding="UTF-8"?>
<svg width="179px" height="50px" viewBox="0 0 179 50" version="1.1" xmlns="http://www.w3.org/2000/svg" xmlns:xlink="http://www.w3.org/1999/xlink">
    <title>Group</title>
    <defs>
        <linearGradient x1="-2.0710038e-07%" y1="3.5800775%" x2="138.106139%" y2="92.6203965%" id="linearGradient-1">
            <stop stop-color="#CEFB2C" offset="0%"></stop>
            <stop stop-color="#05C7FB" offset="100%"></stop>
        </linearGradient>
        <linearGradient x1="-0.725039803%" y1="-48.9373461%" x2="138.25386%" y2="40.6656199%" id="linearGradient-2">
            <stop stop-color="#CEFB2C" offset="0%"></stop>
            <stop stop-color="#05C7FB" offset="100%"></stop>
        </linearGradient>
    </defs>
    <g id="Page-1" stroke="none" stroke-width="1" fill="none" fill-rule="evenodd">
        <g id="Artboard" transform="translate(-654.000000, -2737.000000)" fill-rule="nonzero">
            <g id="Group" transform="translate(654.000000, 2737.000000)">
                <polygon id="Path" fill="#1F324B" points="5.61667 14.2578 9.181 17.8221 3.57039 23.4449 0 19.8745"></polygon>
                <polygon id="Path" fill="#1F324B" points="0.16902 44.1991 17.8629 26.5052 23.4796 32.1219 5.78569 49.8158"></polygon>
                <polygon id="Path" fill="url(#linearGradient-1)" points="5.61667 0 23.4579 17.8412 17.8412 23.4579 0 5.61667"></polygon>
                <polygon id="Path" fill="url(#linearGradient-2)" points="0.169011 29.9413 17.8629 12.2474 23.4796 17.8641 5.78568 35.558"></polygon>
                <path d="M37.3726,37.3789 L47.793,37.3789 C50.1994,37.3789 51.9852,36.7201 53.1502,35.4026 C54.3262,34.0742 54.9142,32.3592 54.9142,30.2577 C54.9142,29.1253 54.6365,28.0854 54.0812,27.1381 C53.5368,26.1799 52.7147,25.4721 51.6149,25.0148 C52.3118,24.5902 52.8563,23.9913 53.2482,23.2182 C53.6402,22.4451 53.8362,21.525 53.8362,20.4579 C53.8362,19.4235 53.5967,18.4 53.1176,17.3873 C52.6385,16.3747 51.8817,15.5362 50.8473,14.872 C49.8129,14.1969 48.4572,13.8594 46.7804,13.8594 L37.3726,13.8594 L37.3726,37.3789 Z M41.8805,23.0385 L41.8805,18.008 L46.715,18.008 C47.5644,18.008 48.2122,18.253 48.6587,18.7429 C49.1051,19.2329 49.3283,19.8373 49.3283,20.5559 C49.3283,21.4161 49.0779,22.0477 48.577,22.4505 C48.087,22.8425 47.4664,23.0385 46.715,23.0385 L41.8805,23.0385 Z M41.8805,33.1977 L41.8805,27.1871 L47.3357,27.1871 C48.3701,27.1871 49.1432,27.4648 49.655,28.0201 C50.1776,28.5645 50.439,29.256 50.439,30.0944 C50.439,31.0417 50.145,31.7985 49.557,32.3647 C48.9799,32.92 48.2395,33.1977 47.3357,33.1977 L41.8805,33.1977 Z M58.1716,37.3789 L62.6469,37.3789 L62.6469,28.3631 C62.6469,26.316 63.4526,24.9223 65.0642,24.1818 C65.5868,23.9314 66.1694,23.7844 66.8118,23.7408 C67.4651,23.6864 68.0368,23.7354 68.5268,23.8878 L68.5268,19.7393 C67.7319,19.6413 66.937,19.663 66.1421,19.8046 C65.3473,19.9353 64.6286,20.1966 63.9862,20.5886 C63.5724,20.8281 63.2076,21.1167 62.8919,21.4542 C62.587,21.7918 62.3202,22.1674 62.0915,22.5812 L62.0915,19.7393 L58.1716,19.7393 L58.1716,37.3789 Z M79.2524,37.8689 C81.0164,37.8689 82.568,37.4769 83.9073,36.6929 C85.2575,35.898 86.3083,34.8037 87.0596,33.41 C87.8218,32.0053 88.2029,30.3884 88.2029,28.5591 C88.2029,26.7407 87.8273,25.1346 87.0759,23.7408 C86.3246,22.3362 85.2739,21.2364 83.9237,20.4416 C82.5844,19.6467 81.0273,19.2493 79.2524,19.2493 C77.5102,19.2493 75.9695,19.6413 74.6302,20.4252 C73.2909,21.2092 72.2401,22.3035 71.4779,23.7082 C70.7157,25.1019 70.3346,26.7189 70.3346,28.5591 C70.3346,30.3775 70.7048,31.989 71.4453,33.3937 C72.1966,34.7874 73.2419,35.8817 74.5812,36.6766 C75.9205,37.4715 77.4776,37.8689 79.2524,37.8689 Z M79.2524,33.7203 C77.8696,33.7203 76.8188,33.2575 76.1002,32.332 C75.3924,31.3956 75.0385,30.1379 75.0385,28.5591 C75.0385,27.0238 75.3761,25.7825 76.0512,24.8352 C76.7371,23.877 77.8042,23.3979 79.2524,23.3979 C80.6571,23.3979 81.7133,23.8661 82.421,24.8025 C83.1397,25.7389 83.499,26.9911 83.499,28.5591 C83.499,30.0726 83.1451,31.3139 82.4374,32.283 C81.7405,33.2412 80.6788,33.7203 79.2524,33.7203 Z M91.762,37.3789 L96.3026,37.3789 L96.3026,28.8857 L102.411,37.3789 L108.193,37.3789 L101.398,28.5591 L107.768,19.7393 L102.28,19.7393 L96.3026,28.2324 L96.3026,13.8594 L91.7947,13.8594 L91.762,37.3789 Z M117.699,37.8689 C119.397,37.8689 120.96,37.4225 122.386,36.5296 C123.823,35.6367 124.874,34.3845 125.538,32.773 L121.096,31.499 C120.421,32.9799 119.201,33.7203 117.437,33.7203 C116.229,33.7203 115.276,33.3828 114.579,32.7077 C113.893,32.0326 113.468,31.0635 113.305,29.8004 L125.685,29.8004 C125.87,27.6662 125.653,25.8097 125.032,24.2308 C124.411,22.652 123.453,21.427 122.157,20.5559 C120.862,19.6848 119.288,19.2493 117.437,19.2493 C115.695,19.2493 114.154,19.6467 112.815,20.4416 C111.476,21.2256 110.425,22.3308 109.663,23.7572 C108.9,25.1836 108.519,26.8604 108.519,28.7877 C108.519,30.5517 108.906,32.1197 109.679,33.4917 C110.463,34.8527 111.541,35.9253 112.913,36.7093 C114.296,37.4823 115.891,37.8689 117.699,37.8689 Z M117.633,23.1039 C118.7,23.1039 119.517,23.3706 120.083,23.9042 C120.66,24.4377 121.03,25.3034 121.194,26.5011 L113.419,26.5011 C113.888,24.2363 115.292,23.1039 117.633,23.1039 Z M129.373,37.3789 L133.849,37.3789 L133.849,28.3631 C133.849,26.316 134.654,24.9223 136.266,24.1818 C136.789,23.9314 137.371,23.7844 138.013,23.7408 C138.667,23.6864 139.238,23.7354 139.728,23.8878 L139.728,19.7393 C138.934,19.6413 138.139,19.663 137.344,19.8046 C136.549,19.9353 135.83,20.1966 135.188,20.5886 C134.774,20.8281 134.409,21.1167 134.094,21.4542 C133.789,21.7918 133.522,22.1674 133.293,22.5812 L133.293,19.7393 L129.373,19.7393 L129.373,37.3789 Z M150.715,37.8689 C152.414,37.8689 153.977,37.4225 155.403,36.5296 C156.84,35.6367 157.891,34.3845 158.555,32.773 L154.113,31.499 C153.438,32.9799 152.218,33.7203 150.454,33.7203 C149.245,33.7203 148.293,33.3828 147.596,32.7077 C146.91,32.0326 146.485,31.0635 146.322,29.8004 L158.702,29.8004 C158.887,27.6662 158.67,25.8097 158.049,24.2308 C157.428,22.652 156.47,21.427 155.174,20.5559 C153.879,19.6848 152.305,19.2493 150.454,19.2493 C148.712,19.2493 147.171,19.6467 145.832,20.4416 C144.493,21.2256 143.442,22.3308 142.68,23.7572 C141.917,25.1836 141.536,26.8604 141.536,28.7877 C141.536,30.5517 141.923,32.1197 142.696,33.4917 C143.48,34.8527 144.558,35.9253 145.93,36.7093 C147.313,37.4823 148.908,37.8689 150.715,37.8689 Z M150.65,23.1039 C151.717,23.1039 152.534,23.3706 153.1,23.9042 C153.677,24.4377 154.047,25.3034 154.211,26.5011 L146.436,26.5011 C146.904,24.2363 148.309,23.1039 150.65,23.1039 Z M170.589,37.8689 C172.288,37.8689 173.851,37.4225 175.277,36.5296 C176.714,35.6367 177.765,34.3845 178.429,32.773 L173.987,31.499 C173.312,32.9799 172.092,33.7203 170.328,33.7203 C169.119,33.7203 168.167,33.3828 167.47,32.7077 C166.784,32.0326 166.359,31.0635 166.196,29.8004 L178.576,29.8004 C178.761,27.6662 178.544,25.8097 177.923,24.2308 C177.302,22.652 176.344,21.427 175.048,20.5559 C173.753,19.6848 172.179,19.2493 170.328,19.2493 C168.586,19.2493 167.045,19.6467 165.706,20.4416 C164.367,21.2256 163.316,22.3308 162.554,23.7572 C161.791,25.1836 161.41,26.8604 161.41,28.7877 C161.41,30.5517 161.797,32.1197 162.57,33.4917 C163.354,34.8527 164.432,35.9253 165.804,36.7093 C167.187,37.4823 168.782,37.8689 170.589,37.8689 Z M170.524,23.1039 C171.591,23.1039 172.408,23.3706 172.974,23.9042 C173.551,24.4377 173.921,25.3034 174.085,26.5011 L166.31,26.5011 C166.778,24.2363 168.183,23.1039 170.524,23.1039 Z" id="Shape" fill="#1F324B"></path>
            </g>
        </g>
    </g>
</svg>