<?xml version="1.0" encoding="UTF-8"?>
<svg width="200px" height="28px" viewBox="0 0 200 28" version="1.1" xmlns="http://www.w3.org/2000/svg" xmlns:xlink="http://www.w3.org/1999/xlink">
    <title>Group</title>
    <g id="Page-1" stroke="none" stroke-width="1" fill="none" fill-rule="evenodd">
        <g id="Group" fill="#FF4E4C" fill-rule="nonzero">
            <g id="a-link" transform="translate(191.999251, 5.001382)">
                <path d="M1.2323409,0.67 L0.582340896,3.72 C0.522340896,3.94 0.582340896,3.98 0.762340896,3.98 L1.1923409,3.98 C1.3923409,3.98 1.4523409,3.92 1.4923409,3.72 L2.1423409,0.67 L3.1823409,0.67 C3.2823409,0.67 3.3623409,0.67 3.3823409,0.53 L3.4423409,0.22 C3.4823409,0.06 3.4423409,0.02 3.2823409,0.02 L0.332340896,0.02 C0.152340896,0.02 0.112340896,0.06 0.0723408959,0.22 L0.0123408959,0.53 C-0.0276591041,0.67 0.0323408959,0.67 0.152340896,0.67 L1.2323409,0.67 Z M5.0323409,0.14 C5.0223409,0.06 5.0023409,0 4.9223409,0 L4.0723409,0 C3.9923409,0 3.9323409,0.04 3.9123409,0.14 L3.1723409,3.7 C3.1123409,3.92 3.1523409,3.96 3.3423409,3.96 L3.5423409,3.96 C3.7223409,3.96 3.8023409,3.9 3.8423409,3.7 L4.2923409,1.54 L4.5923409,3.92 C4.5923409,3.98 4.6223409,4 4.6923409,4 L5.4923409,4 C5.5923409,4 5.6123409,3.98 5.6523409,3.92 L6.8723409,1.69 L6.4423409,3.7 C6.3823409,3.92 6.4223409,3.96 6.6123409,3.96 L6.9723409,3.96 C7.1523409,3.96 7.2023409,3.9 7.2423409,3.7 L7.9923409,0.14 C8.0123409,0.04 7.9923409,0 7.8923409,0 L7.2423409,0 C7.1423409,0 7.1123409,0.02 7.0723409,0.12 L5.3923409,3.23 L5.0323409,0.14 Z" id="a"></path>
            </g>
            <g id="b-link" transform="translate(123.185501, 1.061382)">
                <path d="M13.836091,2.97 C13.176091,1.85 11.536091,1.41 9.756091,1.41 C7.286091,1.41 5.426091,2.26 4.926091,4.56 C3.716091,10.56 15.096091,6.99 13.386091,15.24 C12.606091,19.12 9.526091,20.37 5.896091,20.37 C1.496091,20.37 -0.473909,18.89 0.0960909995,16.09 C0.296091,15.14 1.036091,14.54 1.916091,14.54 C2.766091,14.54 3.216091,15 3.036091,15.97 C2.88007041,16.6480791 2.35300893,17.1790161 1.676091,17.34 C2.246091,18.46 3.896091,18.94 6.046091,18.94 C8.786091,18.94 11.056091,17.96 11.646091,15.06 C13.016091,8.52 1.586091,12.3 3.216091,4.44 C3.876091,1.33 6.226091,8.8817842e-16 9.696091,8.8817842e-16 C14.236091,8.8817842e-16 16.066091,1.7 15.426091,4.36 C15.248258,5.20763651 14.4919846,5.80845369 13.626091,5.79 C12.846091,5.79 12.356091,5.29 12.546091,4.39 C12.726091,3.65 13.246091,3.15 13.846091,2.97 L13.836091,2.97 Z" id="b"></path>
            </g>
            <g id="c-link" transform="translate(140.620450, 0.221382)">
                <path d="M2.57114143,19.48 C3.07114143,19.48 3.27114143,19.4 3.60114143,19.32 C3.87114143,19.26 4.01114143,19.26 3.93114143,19.57 L3.78114143,20.27 C3.72114143,20.52 3.64114143,20.63 3.33114143,20.73 C2.83114143,20.88 2.55114143,20.92 1.78114143,20.92 C0.841141435,20.92 -0.338858565,20.56 0.0911414345,18.57 L2.18114143,8.7 C2.28114143,8.1 2.18114143,7.87 1.64114143,7.85 L0.361141435,7.85 C0.0111414345,7.83 0.0311414345,7.68 0.0911414345,7.39 L0.191141435,6.88 C0.281141435,6.5 0.341141435,6.46 0.651141435,6.44 L3.89114143,6.25 C4.39114143,6.23 4.47114143,6.48 4.34114143,7.02 L1.97114143,18.32 C1.80114143,19.12 2.01114143,19.49 2.57114143,19.49 L2.57114143,19.48 Z M4.90114143,0 C5.64114143,0 6.12114143,0.6 5.93114143,1.47 C5.74377211,2.34983025 4.97066258,2.98161868 4.07114143,2.99 C3.33114143,2.99 2.87114143,2.47 3.07114143,1.59 C3.27114143,0.64 4.05114143,0 4.90114143,0 L4.90114143,0 Z" id="c"></path>
            </g>
            <g id="d-link" transform="translate(145.651793, 6.161382)">
                <path d="M10.6797983,15.04 L11.2597983,12.4 C10.0286083,14.1450116 8.03526204,15.1937497 5.89979834,15.22 C2.50979834,15.22 1.02979834,12.59 1.97979834,8.02 C2.96979834,3.34 5.87979834,0 10.1197983,0 C11.8397983,0 12.6997983,0.5 13.6297983,1.2 L13.6497983,0.97 C13.7897983,0.44 13.9597983,0.21 14.4797983,0.21 L17.5297983,0.39 C17.8597983,0.41 17.9397983,0.49 17.8797983,0.81 L17.7097983,1.51 C17.6497983,1.76 17.4897983,1.78 17.1997983,1.85 L16.0197983,1.85 C15.3397983,1.91 15.2397983,2.18 15.0297983,3.07 L12.5297983,14.91 C11.5297983,19.64 8.88979834,21.65 4.61979834,21.65 C1.99979834,21.65 -0.480201665,20.78 0.0797983353,17.95 C0.239798335,17.19 0.949798335,16.68 1.60979834,16.68 C2.26979834,16.68 2.77979834,17.11 2.60979834,17.88 C2.50979834,18.42 2.09979834,18.83 1.66979834,19.06 C2.11979834,19.85 3.36979834,20.18 4.90979834,20.18 C7.76979834,20.22 9.90979834,18.73 10.6797983,15.04 L10.6797983,15.04 Z M12.2297983,7.76 L13.2597983,2.8 C12.5997983,2.03 11.4797983,1.51 9.93979834,1.51 C6.50979834,1.51 4.50979834,4.87 3.80979834,8.19 C3.20979834,11.08 3.66979834,13.73 6.50979834,13.73 C9.04979834,13.73 11.0297983,11.76 12.2297983,7.76 Z" id="d"></path>
            </g>
            <g id="e-link" transform="translate(163.870637, 0.160272)">
                <path d="M9.31095506,6.0011101 C12.1409551,6.0011101 13.7309551,7.5511101 13.0509551,10.7911101 L11.4409551,18.3911101 C11.2709551,19.1911101 11.4609551,19.5411101 12.0409551,19.5411101 C12.5409551,19.5411101 12.7409551,19.4611101 13.0409551,19.3711101 C13.3609551,19.3111101 13.4809551,19.3111101 13.4009551,19.6211101 L13.2509551,20.3211101 C13.1909551,20.5811101 13.0909551,20.6811101 12.8009551,20.7811101 C12.3009551,20.9311101 12.0209551,20.9711101 11.2509551,20.9711101 C10.2609551,20.9711101 9.13095506,20.6211101 9.56095506,18.6311101 L11.1309551,11.1011101 C11.6309551,8.8811101 10.8609551,7.6011101 8.72095506,7.6011101 C5.93095506,7.6011101 4.05095506,9.8111101 3.27095506,13.5911101 L1.81095506,20.4711101 C1.74095506,20.7811101 1.66095506,20.8511101 1.35095506,20.8511101 L0.350955059,20.8511101 C0.0309550586,20.8511101 -0.0290449414,20.7611101 0.0109550586,20.4711101 L3.85095506,2.4511101 C3.95095506,1.8511101 3.83095506,1.6211101 3.31095506,1.6011101 L2.01095506,1.6011101 C1.66095506,1.5811101 1.66095506,1.4311101 1.74095506,1.1411101 L1.84095506,0.621110097 C1.93095506,0.251110097 1.99095506,0.211110097 2.30095506,0.191110097 L5.54095506,0.00111009709 C6.05095506,-0.0188899029 6.12095506,0.231110097 5.99095506,0.771110097 L4.30095506,8.7511101 C5.3649214,7.01064883 7.27137994,5.96418955 9.31095506,6.0011101 L9.31095506,6.0011101 Z" id="e"></path>
            </g>
            <g id="f-link" transform="translate(180.583121, 2.861382)">
                <path d="M2.498471,3.77 L3.698471,0.44 C3.798471,0.1 4.028471,4.4408921e-16 4.548471,4.4408921e-16 C5.118471,4.4408921e-16 5.118471,0.1 5.048471,0.44 L4.318471,3.77 L7.868471,3.77 C8.198471,3.77 8.298471,3.84 8.238471,4.09 L8.068471,4.92 C8.008471,5.14 7.888471,5.27 7.568471,5.27 L4.008471,5.27 L2.148471,13.94 C1.638471,16.49 2.478471,16.84 3.758471,16.84 C4.438471,16.84 5.118471,16.74 5.698471,16.49 C6.028471,16.34 6.108471,16.43 6.048471,16.74 L5.888471,17.51 C5.828471,17.75 5.718471,17.88 5.388471,18.01 C4.728471,18.25 4.048471,18.36 3.288471,18.36 C0.958470996,18.36 -0.381529004,17.36 0.238470996,14.41 L2.168471,5.27 L0.378470996,5.27 C0.0284709959,5.27 -0.0515290041,5.21 0.0284709959,4.89 L0.168470996,4.21 C0.238470996,3.94 0.358470996,3.8 0.628470996,3.8 L2.498471,3.8 L2.498471,3.77 Z" id="f"></path>
            </g>
            <g transform="translate(50.031301, 0.000000)">
                <g id="g-link" transform="translate(0.000000, 0.871382)">
                    <path d="M11.9702902,2.23 C7.29029021,2.23 4.05029021,5.67 2.93029021,10.95 C1.86029021,15.93 3.61029021,18.76 8.48029021,18.76 C10.5189937,18.778659 12.5345431,18.3269569 14.3702902,17.44 L14.6402902,17.32 C14.9402902,17.19 15.0802902,17.13 15.2602902,17.16 C15.6502902,17.21 15.7402902,17.54 15.6602902,17.91 L15.4902902,18.81 C15.4502902,19.2 15.2602902,19.39 14.7702902,19.63 C13.3202902,20.43 10.8302902,21.06 8.09029021,21.06 C1.89029021,21.06 -1.06970979,17.3 0.350290207,10.42 C1.65029021,4.15 6.15029021,7.77156117e-16 12.1502902,7.77156117e-16 C14.4502902,7.77156117e-16 16.1302902,0.6 17.1502902,1.68 C18.0502902,2.64 18.3502902,3.94 18.0802902,5.25 C17.8569593,6.2490831 16.9739997,6.96208341 15.9502902,6.97 C14.9002902,6.97 14.2502902,6.22 14.4802902,5.13 C14.6302902,4.43 15.1102902,3.87 15.7302902,3.6 C15.1302902,2.76 13.8502902,2.24 11.9802902,2.24 L11.9702902,2.23 Z" id="g"></path>
                </g>
                <g id="h-link" transform="translate(17.878008, 0.000000)">
                    <path d="M2.08228224,2.34138218 L2.05228224,2.34138218 C1.48228224,2.31138218 1.31228224,1.95138218 1.45228224,1.44138218 L1.55228224,0.941382176 C1.66228224,0.391382176 1.85228224,0.221382176 2.35228224,0.191382176 L5.55228224,0.0013821757 C6.33228224,-0.0286178243 6.56228224,0.431382176 6.38228224,1.22138218 L2.68228224,18.8413822 C2.61228224,19.4413822 2.66228224,19.5513822 2.93228224,19.5513822 C3.17228224,19.5513822 3.33228224,19.5313822 3.56228224,19.4713822 L3.85228224,19.4013822 C4.15228224,19.3313822 4.27228224,19.3313822 4.43228224,19.4213822 C4.68228224,19.5713822 4.70228224,19.7913822 4.62228224,20.0913822 L4.48228224,20.8013822 C4.38228224,21.1813822 4.20228224,21.3813822 3.81228224,21.5213822 L3.79228224,21.5213822 C3.23228224,21.6813822 2.89228224,21.7213822 2.16228224,21.7213822 C0.592282241,21.7213822 -0.317717759,20.8713822 0.102282241,18.9313822 L3.49228224,2.78138218 C3.59228224,2.34138218 3.60228224,2.36138218 3.34228224,2.34138218 L2.08228224,2.34138218 Z" id="h"></path>
                </g>
                <g id="i-link" transform="translate(24.591294, 6.001382)">
                    <path d="M8.40899585,0 C13.1589959,0 14.9989959,3.26 13.9289959,8.4 C12.9589959,13.14 10.1789959,16 5.72899585,16 C1.02899585,16 -0.77100415,12.7 0.29899585,7.58 C1.29899585,2.82 4.00899585,0 8.40899585,0 L8.40899585,0 Z M2.85899585,8.04 C2.06899585,11.84 2.95899585,13.8 5.79899585,13.8 C8.73899585,13.8 10.5689959,11.72 11.3689959,7.89 C12.1589959,4.12 11.2289959,2.15 8.36899585,2.15 C5.46899585,2.15 3.65899585,4.22 2.85899585,8.05 L2.85899585,8.04 Z" id="i"></path>
                </g>
                <g id="j-link" transform="translate(40.568699, 6.271382)">
                    <path d="M11.2015913,2.43 C11.0015913,2.36 10.6515913,2.34 9.78159126,2.34 C9.26159126,2.34 9.02159126,2.06 9.09159126,1.56 L9.24159126,0.9 C9.37159126,0.4 9.59159126,0.22 10.0915913,0.19 L13.2415913,-8.8817842e-16 C14.0115913,-8.8817842e-16 14.2615913,0.43 14.1115913,1.22 L11.7415913,12.58 C11.6415913,13.16 11.7015913,13.28 11.9915913,13.28 C12.2615913,13.28 12.4415913,13.25 12.6915913,13.18 L12.9015913,13.13 C13.2015913,13.07 13.3215913,13.06 13.4815913,13.14 C13.7515913,13.28 13.7815913,13.52 13.7015913,13.82 L13.5515913,14.53 C13.4615913,14.91 13.2715913,15.1 12.8715913,15.25 C12.3115913,15.42 11.9815913,15.45 11.2215913,15.45 C10.0715913,15.45 9.29159126,15 9.11159126,13.98 C7.79634374,15.0984123 6.10633987,15.6772297 4.38159126,15.6 C1.06159126,15.6 -0.218408742,13.9 0.551591258,10.15 L2.12159126,2.73 C2.14849599,2.63925973 2.15866163,2.54438045 2.15159126,2.45 C1.66901477,2.3456884 1.17384856,2.31200362 0.681591258,2.35 C0.191591258,2.35 -0.0584087424,2.06 0.0115912576,1.57 L0.161591258,0.91 C0.281591258,0.41 0.501591258,0.23 1.01159126,0.2 L4.16159126,0.01 C4.92159126,0.01 5.16159126,0.46 4.99159126,1.23 L3.06159126,10.43 C2.64159126,12.4 3.16159126,13.33 5.00159126,13.33 C7.58159126,13.33 9.40159126,11.53 10.0615913,8.38 L11.2615913,2.58 C11.2815913,2.44 11.2915913,2.46 11.2015913,2.43 Z" id="j"></path>
                </g>
                <g id="k-link" transform="translate(56.159227, 0.000027)">
                    <path d="M12.2610631,19.5513552 C12.5210631,19.5513552 12.6910631,19.5313552 12.9110631,19.4713552 L13.1910631,19.4013552 C13.5010631,19.3313552 13.6110631,19.3313552 13.7710631,19.4213552 C14.0210631,19.5713552 14.0410631,19.7913552 13.9710631,20.0913552 L13.8210631,20.8013552 C13.7210631,21.1813552 13.5510631,21.3813552 13.1610631,21.5213552 C12.5810631,21.6813552 12.2310631,21.7213552 11.5010631,21.7213552 C10.2410631,21.7213552 9.4010631,21.1813552 9.3510631,19.9513552 C8.08351956,21.2377034 6.35693615,21.9679043 4.5510631,21.9813552 C0.8910631,21.9813552 -0.7189369,19.0513552 0.3010631,14.3313552 C1.3410631,9.27135517 4.4910631,6.00135517 8.7210631,6.00135517 C10.0910631,6.00135517 10.9610631,6.27135517 11.9510631,6.94135517 L12.8010631,2.76135517 C12.9010631,2.35135517 12.9010631,2.36135517 12.6410631,2.34135517 L11.3810631,2.34135517 C10.7810631,2.31135517 10.6110631,1.95135517 10.7510631,1.44135517 L10.8510631,0.941355174 C10.9610631,0.391355174 11.1510631,0.221355174 11.6510631,0.191355174 L14.8510631,0.00135517437 C15.6110631,-0.0286448256 15.8510631,0.441355174 15.6810631,1.22135517 L11.9810631,18.8413552 C11.9110631,19.4113552 11.9910631,19.5513552 12.2610631,19.5513552 Z M11.4710631,9.28135517 C10.8410631,8.63135517 9.8410631,8.26135517 8.5710631,8.26135517 C5.7410631,8.26135517 3.6210631,10.8813552 2.8410631,14.6413552 C2.1810631,17.8213552 2.9210631,19.7413552 5.1810631,19.7413552 C7.5210631,19.7413552 9.3410631,17.8413552 10.4910631,14.0413552 L11.4710631,9.28135517 Z" id="k"></path>
                </g>
            </g>
            <g id="l-link" transform="translate(0.000000, 0.001382)">
                <path d="M18.0015934,19.5 C18.0027619,20.4980157 17.4102431,21.4011129 16.4942767,21.7973986 C15.5783103,22.1936843 14.5144041,22.0072265 13.7877942,21.3230666 C13.0611842,20.6389067 12.8110959,19.5881361 13.1515917,18.65 C13.4115917,18.84 13.7115917,18.95 14.0315917,18.95 C14.8315917,18.95 15.5015917,18.28 15.5015917,17.47 C15.5015917,17.3 15.4615917,17.15 15.4115917,17 L15.5015917,17 C16.8915917,17 18.0015934,18.11 18.0015934,19.5 L18.0015934,19.5 Z M35.0015917,16.42 C35.0364707,17.8460237 34.5025458,19.2273294 33.5176165,20.2591601 C32.5326872,21.2909908 31.1776952,21.8885505 29.7515917,21.92 C29.1715917,21.92 25.9315917,22.07 24.9415917,21.96 C24.3387891,21.9211778 23.7704275,21.6654151 23.3415917,21.24 C22.5415917,20.41 22.6515917,19.14 22.2515917,18.11 C21.8820909,17.1434834 21.324684,16.2597896 20.6115917,15.51 C19.192258,13.9994439 17.2143216,13.1388427 15.1415917,13.13 C10.8815917,13.13 7.44159168,16.73 7.44159168,21.17 C7.44159168,21.43 7.47159168,21.68 7.49159168,21.91 L5.85159168,21.91 C2.50392784,21.6510865 -0.0613657389,18.827071 0.00159167557,15.47 C-0.0359540333,13.7990188 0.592046691,12.1816024 1.74735824,10.9737767 C2.9026698,9.765951 4.49059217,9.06672053 6.16159168,9.03 L6.58159168,9.06 C7.31811978,7.333171 9.00440022,6.20375526 10.8815917,6.18 C11.5915917,6.18 12.2415917,6.35 12.8315917,6.62 C13.7371293,2.79021621 17.1267241,0.0637134337 21.0615917,0 C25.7615917,0 29.5615917,3.98 29.5615917,8.9 C29.5615917,9.61 29.4815917,10.33 29.3315917,11 L29.7715917,10.98 C32.6715917,10.98 35.0015917,13.38 35.0015917,16.42 Z" id="l"></path>
            </g>
        </g>
    </g>
</svg>