<?xml version="1.0" encoding="UTF-8"?>
<svg width="35px" height="22px" viewBox="0 0 35 22" version="1.1" xmlns="http://www.w3.org/2000/svg" xmlns:xlink="http://www.w3.org/1999/xlink">
    <title>Group</title>
    <g id="Home-page" stroke="none" stroke-width="1" fill="none" fill-rule="evenodd">
        <g id="Group" fill="#FFFFFF" fill-rule="nonzero">
            <path d="M18.0015934,19.5 C18.0027619,20.4980157 17.4102431,21.4011129 16.4942767,21.7973986 C15.5783103,22.1936843 14.5144041,22.0072265 13.7877942,21.3230666 C13.0611842,20.6389067 12.8110959,19.5881361 13.1515917,18.65 C13.4115917,18.84 13.7115917,18.95 14.0315917,18.95 C14.8315917,18.95 15.5015917,18.28 15.5015917,17.47 C15.5015917,17.3 15.4615917,17.15 15.4115917,17 L15.5015917,17 C16.8915917,17 18.0015934,18.11 18.0015934,19.5 L18.0015934,19.5 Z M35.0015917,16.42 C35.0364707,17.8460237 34.5025458,19.2273294 33.5176165,20.2591601 C32.5326872,21.2909908 31.1776952,21.8885505 29.7515917,21.92 C29.1715917,21.92 25.9315917,22.07 24.9415917,21.96 C24.3387891,21.9211778 23.7704275,21.6654151 23.3415917,21.24 C22.5415917,20.41 22.6515917,19.14 22.2515917,18.11 C21.8820909,17.1434834 21.324684,16.2597896 20.6115917,15.51 C19.192258,13.9994439 17.2143216,13.1388427 15.1415917,13.13 C10.8815917,13.13 7.44159168,16.73 7.44159168,21.17 C7.44159168,21.43 7.47159168,21.68 7.49159168,21.91 L5.85159168,21.91 C2.50392784,21.6510865 -0.0613657389,18.827071 0.00159167557,15.47 C-0.0359540333,13.7990188 0.592046691,12.1816024 1.74735824,10.9737767 C2.9026698,9.765951 4.49059217,9.06672053 6.16159168,9.03 L6.58159168,9.06 C7.31811978,7.333171 9.00440022,6.20375526 10.8815917,6.18 C11.5915917,6.18 12.2415917,6.35 12.8315917,6.62 C13.7371293,2.79021621 17.1267241,0.0637134337 21.0615917,0 C25.7615917,0 29.5615917,3.98 29.5615917,8.9 C29.5615917,9.61 29.4815917,10.33 29.3315917,11 L29.7715917,10.98 C32.6715917,10.98 35.0015917,13.38 35.0015917,16.42 L35.0015917,16.42 Z" id="a"></path>
        </g>
    </g>
</svg>