<?xml version="1.0" encoding="UTF-8"?>
<svg width="120px" height="37px" viewBox="0 0 120 37" version="1.1" xmlns="http://www.w3.org/2000/svg" xmlns:xlink="http://www.w3.org/1999/xlink">
    <title>Group</title>
    <defs>
        <linearGradient x1="4.01907089%" y1="222.878893%" x2="158.573551%" y2="-358.219878%" id="linearGradient-1">
            <stop stop-color="#EB2323" offset="0%"></stop>
            <stop stop-color="#F69C23" offset="100%"></stop>
        </linearGradient>
        <path d="M0.0608219178,4.56575342 L6.83178082,10.92 L6.88191781,10.9693151 L15.0526027,10.9693151 C14.1879452,10.14 13.5156164,9.47424658 13.0347945,8.9769863 L13.0347945,8.9769863 C12.5523288,8.47808219 12.1290411,8.05479452 11.7649315,7.70630137 L11.7649315,7.70630137 C11.3983562,7.35780822 11.0416438,7.00849315 10.6923288,6.66 L10.6923288,6.66 C10.3438356,6.31068493 9.87041096,5.83726027 9.27287671,5.23972603 L9.27287671,5.23972603 C8.67534247,4.64219178 7.90273973,3.87780822 6.95671233,2.94821918 L6.95671233,2.94821918 C6.00986301,2.01780822 5.84383562,1.83863014 4.31506849,0.309863014 L4.31506849,0.309863014 L0.0608219178,4.56575342 Z" id="path-2"></path>
        <linearGradient x1="-26.54558%" y1="114.517097%" x2="369.589315%" y2="-167.142632%" id="linearGradient-4">
            <stop stop-color="#EB2323" offset="0%"></stop>
            <stop stop-color="#F69C23" offset="100%"></stop>
        </linearGradient>
        <path d="M0.526849315,0.0271232877 L0.526849315,35.0268493 L7.15315068,35.0268493 L7.15315068,28.8484932 L17.4164384,18.5852055 C19.9742466,16.0282192 22.8139726,13.2041096 25.9364384,10.1161644 L25.9364384,10.1161644 L17.7156164,10.1161644 L7.15315068,20.229863 L7.15315068,0.0271232877 L0.526849315,0.0271232877 Z" id="path-5"></path>
        <linearGradient x1="-9.39959147%" y1="104.986332%" x2="225.913883%" y2="-219.139616%" id="linearGradient-7">
            <stop stop-color="#EB2323" offset="0%"></stop>
            <stop stop-color="#F69C23" offset="100%"></stop>
        </linearGradient>
        <path d="M0.502191781,13.3306849 C0.502191781,20.369589 6.20794521,26.0753425 13.2468493,26.0753425 L13.2468493,26.0753425 C20.2849315,26.0753425 25.9915068,20.369589 25.9915068,13.3306849 L25.9915068,13.3306849 C25.9915068,6.29260274 20.2849315,0.586849315 13.2468493,0.586849315 L13.2468493,0.586849315 C6.20794521,0.586849315 0.502191781,6.29260274 0.502191781,13.3306849 M6.44054795,13.3306849 C6.44054795,9.57205479 9.48739726,6.52438356 13.2468493,6.52438356 L13.2468493,6.52438356 C17.0054795,6.52438356 20.0531507,9.57205479 20.0531507,13.3306849 L20.0531507,13.3306849 C20.0531507,17.0909589 17.0054795,20.1378082 13.2468493,20.1378082 L13.2468493,20.1378082 C9.48739726,20.1378082 6.44054795,17.0909589 6.44054795,13.3306849" id="path-8"></path>
        <linearGradient x1="14.644418%" y1="85.3537107%" x2="85.3536363%" y2="14.6467724%" id="linearGradient-10">
            <stop stop-color="#EB2323" offset="0%"></stop>
            <stop stop-color="#F69C23" offset="100%"></stop>
        </linearGradient>
        <path d="M0.163561644,35.130411 L6.78986301,35.130411 L6.78986301,31.7178082 C8.59643836,34.2616438 11.2224658,35.5315068 14.669589,35.5315068 L14.669589,35.5315068 C16.4424658,35.5315068 18.1150685,35.1969863 19.6865753,34.5287671 L19.6865753,34.5287671 C21.259726,33.859726 22.6315068,32.94 23.8035616,31.7679452 L23.8035616,31.7679452 C24.9739726,30.5967123 25.9019178,29.2257534 26.5882192,27.6526027 L26.5882192,27.6526027 C27.2745205,26.0810959 27.6172603,24.4076712 27.6172603,22.6339726 L27.6172603,22.6339726 C27.6172603,20.860274 27.2745205,19.1884932 26.5882192,17.6145205 L26.5882192,17.6145205 C25.9019178,16.0430137 24.9739726,14.6712329 23.8035616,13.5 L23.8035616,13.5 C22.6315068,12.3287671 21.259726,11.4090411 19.6865753,10.74 L19.6865753,10.74 C18.1150685,10.0709589 16.4424658,9.73479452 14.669589,9.73479452 L14.669589,9.73479452 C13.3454795,9.73479452 12.1405479,9.92876712 11.0490411,10.3117808 L11.0490411,10.3117808 L11.0490411,16.2986301 L11.0556164,16.310137 L11.1049315,16.26 C12.0090411,15.8926027 12.9115068,15.7076712 13.8156164,15.7076712 L13.8156164,15.7076712 C14.7517808,15.7076712 15.6468493,15.8835616 16.5008219,16.2353425 L16.5008219,16.2353425 C17.3539726,16.5854795 18.0887671,17.080274 18.7084932,17.7156164 L18.7084932,17.7156164 C19.3273973,18.3526027 19.8213699,19.0882192 20.189589,19.9232877 L20.189589,19.9232877 C20.5578082,20.7608219 20.7419178,21.6641096 20.7419178,22.6339726 L20.7419178,22.6339726 C20.7419178,23.6046575 20.5578082,24.5079452 20.189589,25.3438356 L20.189589,25.3438356 C19.8213699,26.1805479 19.3273973,26.9079452 18.7084932,27.5268493 L18.7084932,27.5268493 C18.0887671,28.1465753 17.3539726,28.6405479 16.5008219,29.0079452 L16.5008219,29.0079452 C15.6468493,29.3761644 14.7517808,29.5594521 13.8156164,29.5594521 L13.8156164,29.5594521 C12.8441096,29.5594521 11.9334247,29.3761644 11.080274,29.0079452 L11.080274,29.0079452 C10.2271233,28.6405479 9.49150685,28.1465753 8.87178082,27.5268493 L8.87178082,27.5268493 C8.25287671,26.9079452 7.75890411,26.1805479 7.39068493,25.3438356 L7.39068493,25.3438356 C7.02246575,24.5079452 6.83917808,23.6046575 6.83917808,22.6339726 L6.83917808,22.6339726 L6.83917808,0.140547945 L0.163561644,0.0271232877 L0.163561644,35.130411 Z" id="path-11"></path>
        <linearGradient x1="12.033305%" y1="88.4307542%" x2="61.3294282%" y2="24.6787444%" id="linearGradient-13">
            <stop stop-color="#EB2323" offset="0%"></stop>
            <stop stop-color="#F69C23" offset="100%"></stop>
        </linearGradient>
        <path d="M0.283561644,11.1624658 C0.169315068,11.8536986 0.105205479,12.5613699 0.105205479,13.2838356 L0.105205479,13.2838356 C0.105205479,20.3564384 5.83890411,26.0893151 12.9106849,26.0893151 L12.9106849,26.0893151 C16.8887671,26.0893151 20.4427397,24.2761644 22.7909589,21.4323288 L22.7909589,21.4323288 C22.9578082,21.2284932 23.1172603,21.0205479 23.2717808,20.8076712 L23.2717808,20.8076712 L23.3416438,20.7353425 C23.7468493,20.1452055 24.0024658,19.7063014 24.1586301,19.4087671 L24.1586301,19.4087671 C24.3254795,19.0939726 24.3813699,18.9394521 24.3813699,18.9394521 L24.3813699,18.9394521 L17.0145205,18.950137 C16.1745205,19.5854795 15.2958904,19.86 15.2958904,19.86 L15.2958904,19.86 C15.0024658,19.9569863 14.6975342,20.0358904 14.3810959,20.0950685 L14.3810959,20.0950685 C13.9076712,20.1978082 13.4161644,20.2528767 12.9106849,20.2528767 L12.9106849,20.2528767 C9.08630137,20.2528767 5.9860274,17.1517808 5.9860274,13.3282192 L5.9860274,13.3282192 C5.9860274,12.5720548 6.10767123,11.8430137 6.33205479,11.1624658 L6.33205479,11.1624658 C6.99863014,9.13808219 8.57342466,7.52547945 10.5739726,6.80794521 L10.5739726,6.80794521 C11.3046575,6.54575342 12.090411,6.40273973 12.9106849,6.40273973 L12.9106849,6.40273973 C13.329863,6.40273973 13.7383562,6.44136986 14.1361644,6.51205479 L14.1361644,6.51205479 C16.6569863,6.96246575 18.7043836,8.77561644 19.4909589,11.1624658 L19.4909589,11.1624658 L18.9575342,11.1665753 L12.1528767,11.1665753 L12.1841096,16.2476712 L19.190137,16.2476712 L25.3347945,16.2476712 L25.3849315,16.1482192 C25.5846575,15.2515068 25.6841096,14.3210959 25.6841096,13.3578082 L25.6841096,13.3578082 C25.6841096,12.6049315 25.62,11.8742466 25.5,11.1624658 L25.5,11.1624658 C25.3347945,10.1786301 25.0569863,9.23260274 24.6624658,8.3260274 L24.6624658,8.3260274 C23.9819178,6.76520548 23.0589041,5.40328767 21.8975342,4.24027397 L21.8975342,4.24027397 C20.7336986,3.07726027 19.3726027,2.15671233 17.8126027,1.47534247 L17.8126027,1.47534247 C17.3210959,1.26164384 16.8205479,1.08493151 16.310137,0.938630137 L16.310137,0.938630137 C15.2268493,0.64109589 14.0884932,0.479178082 12.9106849,0.479178082 L12.9106849,0.479178082 C6.56219178,0.479178082 1.29534247,5.10082192 0.283561644,11.1624658" id="path-14"></path>
        <linearGradient x1="-262.357495%" y1="362.809603%" x2="154.259602%" y2="-54.3162005%" id="linearGradient-16">
            <stop stop-color="#EB2323" offset="0%"></stop>
            <stop stop-color="#F69C23" offset="100%"></stop>
        </linearGradient>
        <path d="M0.181643836,3.45369863 C0.181643836,5.30054795 1.67835616,6.79726027 3.52438356,6.79726027 L3.52438356,6.79726027 C5.37123288,6.79726027 6.86794521,5.30054795 6.86794521,3.45369863 L6.86794521,3.45369863 C6.86794521,1.60684932 5.37123288,0.110136986 3.52438356,0.110136986 L3.52438356,0.110136986 C1.67835616,0.110136986 0.181643836,1.60684932 0.181643836,3.45369863" id="path-17"></path>
        <linearGradient x1="14.6521131%" y1="85.3552384%" x2="85.3509064%" y2="14.6477544%" id="linearGradient-19">
            <stop stop-color="#EB2323" offset="0%"></stop>
            <stop stop-color="#F69C23" offset="100%"></stop>
        </linearGradient>
    </defs>
    <g id="Home-page" stroke="none" stroke-width="1" fill="none" fill-rule="evenodd">
        <g id="Home-slide-3" transform="translate(-127.000000, -27.000000)">
            <g id="Group-36" transform="translate(-1.000000, 0.000000)">
                <g id="header" transform="translate(128.000000, 24.500000)">
                    <g id="Group" transform="translate(0.000000, 2.500000)">
                        <polygon id="Fill-10004" fill="url(#linearGradient-1)" points="28.0109589 35.0268493 34.6364384 35.0268493 34.6364384 10.1161644 28.0109589 10.1161644"></polygon>
                        <g id="Group-10008" transform="translate(10.684932, 24.057534)">
                            <mask id="mask-3" fill="white">
                                <use xlink:href="#path-2"></use>
                            </mask>
                            <g id="Clip-10007"></g>
                            <path d="M0.0608219178,4.56575342 L6.83178082,10.92 L6.88191781,10.9693151 L15.0526027,10.9693151 C14.1879452,10.14 13.5156164,9.47424658 13.0347945,8.9769863 L13.0347945,8.9769863 C12.5523288,8.47808219 12.1290411,8.05479452 11.7649315,7.70630137 L11.7649315,7.70630137 C11.3983562,7.35780822 11.0416438,7.00849315 10.6923288,6.66 L10.6923288,6.66 C10.3438356,6.31068493 9.87041096,5.83726027 9.27287671,5.23972603 L9.27287671,5.23972603 C8.67534247,4.64219178 7.90273973,3.87780822 6.95671233,2.94821918 L6.95671233,2.94821918 C6.00986301,2.01780822 5.84383562,1.83863014 4.31506849,0.309863014 L4.31506849,0.309863014 L0.0608219178,4.56575342 Z" id="Fill-10006" fill="url(#linearGradient-4)" mask="url(#mask-3)"></path>
                        </g>
                        <g id="Group-10011">
                            <mask id="mask-6" fill="white">
                                <use xlink:href="#path-5"></use>
                            </mask>
                            <g id="Clip-10010"></g>
                            <path d="M0.526849315,0.0271232877 L0.526849315,35.0268493 L7.15315068,35.0268493 L7.15315068,28.8484932 L17.4164384,18.5852055 C19.9742466,16.0282192 22.8139726,13.2041096 25.9364384,10.1161644 L25.9364384,10.1161644 L17.7156164,10.1161644 L7.15315068,20.229863 L7.15315068,0.0271232877 L0.526849315,0.0271232877 Z" id="Fill-10009" fill="url(#linearGradient-7)" mask="url(#mask-6)"></path>
                        </g>
                        <g id="Group-10014" transform="translate(36.164384, 9.263014)">
                            <mask id="mask-9" fill="white">
                                <use xlink:href="#path-8"></use>
                            </mask>
                            <g id="Clip-10013"></g>
                            <path d="M0.502191781,13.3306849 C0.502191781,20.369589 6.20794521,26.0753425 13.2468493,26.0753425 L13.2468493,26.0753425 C20.2849315,26.0753425 25.9915068,20.369589 25.9915068,13.3306849 L25.9915068,13.3306849 C25.9915068,6.29260274 20.2849315,0.586849315 13.2468493,0.586849315 L13.2468493,0.586849315 C6.20794521,0.586849315 0.502191781,6.29260274 0.502191781,13.3306849 M6.44054795,13.3306849 C6.44054795,9.57205479 9.48739726,6.52438356 13.2468493,6.52438356 L13.2468493,6.52438356 C17.0054795,6.52438356 20.0531507,9.57205479 20.0531507,13.3306849 L20.0531507,13.3306849 C20.0531507,17.0909589 17.0054795,20.1378082 13.2468493,20.1378082 L13.2468493,20.1378082 C9.48739726,20.1378082 6.44054795,17.0909589 6.44054795,13.3306849" id="Fill-10012" fill="url(#linearGradient-10)" mask="url(#mask-9)"></path>
                        </g>
                        <g id="Group-10017" transform="translate(64.109589, 0.000000)">
                            <mask id="mask-12" fill="white">
                                <use xlink:href="#path-11"></use>
                            </mask>
                            <g id="Clip-10016"></g>
                            <path d="M0.163561644,35.130411 L6.78986301,35.130411 L6.78986301,31.7178082 C8.59643836,34.2616438 11.2224658,35.5315068 14.669589,35.5315068 L14.669589,35.5315068 C16.4424658,35.5315068 18.1150685,35.1969863 19.6865753,34.5287671 L19.6865753,34.5287671 C21.259726,33.859726 22.6315068,32.94 23.8035616,31.7679452 L23.8035616,31.7679452 C24.9739726,30.5967123 25.9019178,29.2257534 26.5882192,27.6526027 L26.5882192,27.6526027 C27.2745205,26.0810959 27.6172603,24.4076712 27.6172603,22.6339726 L27.6172603,22.6339726 C27.6172603,20.860274 27.2745205,19.1884932 26.5882192,17.6145205 L26.5882192,17.6145205 C25.9019178,16.0430137 24.9739726,14.6712329 23.8035616,13.5 L23.8035616,13.5 C22.6315068,12.3287671 21.259726,11.4090411 19.6865753,10.74 L19.6865753,10.74 C18.1150685,10.0709589 16.4424658,9.73479452 14.669589,9.73479452 L14.669589,9.73479452 C13.3454795,9.73479452 12.1405479,9.92876712 11.0490411,10.3117808 L11.0490411,10.3117808 L11.0490411,16.2986301 L11.0556164,16.310137 L11.1049315,16.26 C12.0090411,15.8926027 12.9115068,15.7076712 13.8156164,15.7076712 L13.8156164,15.7076712 C14.7517808,15.7076712 15.6468493,15.8835616 16.5008219,16.2353425 L16.5008219,16.2353425 C17.3539726,16.5854795 18.0887671,17.080274 18.7084932,17.7156164 L18.7084932,17.7156164 C19.3273973,18.3526027 19.8213699,19.0882192 20.189589,19.9232877 L20.189589,19.9232877 C20.5578082,20.7608219 20.7419178,21.6641096 20.7419178,22.6339726 L20.7419178,22.6339726 C20.7419178,23.6046575 20.5578082,24.5079452 20.189589,25.3438356 L20.189589,25.3438356 C19.8213699,26.1805479 19.3273973,26.9079452 18.7084932,27.5268493 L18.7084932,27.5268493 C18.0887671,28.1465753 17.3539726,28.6405479 16.5008219,29.0079452 L16.5008219,29.0079452 C15.6468493,29.3761644 14.7517808,29.5594521 13.8156164,29.5594521 L13.8156164,29.5594521 C12.8441096,29.5594521 11.9334247,29.3761644 11.080274,29.0079452 L11.080274,29.0079452 C10.2271233,28.6405479 9.49150685,28.1465753 8.87178082,27.5268493 L8.87178082,27.5268493 C8.25287671,26.9079452 7.75890411,26.1805479 7.39068493,25.3438356 L7.39068493,25.3438356 C7.02246575,24.5079452 6.83917808,23.6046575 6.83917808,22.6339726 L6.83917808,22.6339726 L6.83917808,0.140547945 L0.163561644,0.0271232877 L0.163561644,35.130411 Z" id="Fill-10015" fill="url(#linearGradient-13)" mask="url(#mask-12)"></path>
                        </g>
                        <g id="Group-10020" transform="translate(93.698630, 9.263014)">
                            <mask id="mask-15" fill="white">
                                <use xlink:href="#path-14"></use>
                            </mask>
                            <g id="Clip-10019"></g>
                            <path d="M0.283561644,11.1624658 C0.169315068,11.8536986 0.105205479,12.5613699 0.105205479,13.2838356 L0.105205479,13.2838356 C0.105205479,20.3564384 5.83890411,26.0893151 12.9106849,26.0893151 L12.9106849,26.0893151 C16.8887671,26.0893151 20.4427397,24.2761644 22.7909589,21.4323288 L22.7909589,21.4323288 C22.9578082,21.2284932 23.1172603,21.0205479 23.2717808,20.8076712 L23.2717808,20.8076712 L23.3416438,20.7353425 C23.7468493,20.1452055 24.0024658,19.7063014 24.1586301,19.4087671 L24.1586301,19.4087671 C24.3254795,19.0939726 24.3813699,18.9394521 24.3813699,18.9394521 L24.3813699,18.9394521 L17.0145205,18.950137 C16.1745205,19.5854795 15.2958904,19.86 15.2958904,19.86 L15.2958904,19.86 C15.0024658,19.9569863 14.6975342,20.0358904 14.3810959,20.0950685 L14.3810959,20.0950685 C13.9076712,20.1978082 13.4161644,20.2528767 12.9106849,20.2528767 L12.9106849,20.2528767 C9.08630137,20.2528767 5.9860274,17.1517808 5.9860274,13.3282192 L5.9860274,13.3282192 C5.9860274,12.5720548 6.10767123,11.8430137 6.33205479,11.1624658 L6.33205479,11.1624658 C6.99863014,9.13808219 8.57342466,7.52547945 10.5739726,6.80794521 L10.5739726,6.80794521 C11.3046575,6.54575342 12.090411,6.40273973 12.9106849,6.40273973 L12.9106849,6.40273973 C13.329863,6.40273973 13.7383562,6.44136986 14.1361644,6.51205479 L14.1361644,6.51205479 C16.6569863,6.96246575 18.7043836,8.77561644 19.4909589,11.1624658 L19.4909589,11.1624658 L18.9575342,11.1665753 L12.1528767,11.1665753 L12.1841096,16.2476712 L19.190137,16.2476712 L25.3347945,16.2476712 L25.3849315,16.1482192 C25.5846575,15.2515068 25.6841096,14.3210959 25.6841096,13.3578082 L25.6841096,13.3578082 C25.6841096,12.6049315 25.62,11.8742466 25.5,11.1624658 L25.5,11.1624658 C25.3347945,10.1786301 25.0569863,9.23260274 24.6624658,8.3260274 L24.6624658,8.3260274 C23.9819178,6.76520548 23.0589041,5.40328767 21.8975342,4.24027397 L21.8975342,4.24027397 C20.7336986,3.07726027 19.3726027,2.15671233 17.8126027,1.47534247 L17.8126027,1.47534247 C17.3210959,1.26164384 16.8205479,1.08493151 16.310137,0.938630137 L16.310137,0.938630137 C15.2268493,0.64109589 14.0884932,0.479178082 12.9106849,0.479178082 L12.9106849,0.479178082 C6.56219178,0.479178082 1.29534247,5.10082192 0.283561644,11.1624658" id="Fill-10018" fill="url(#linearGradient-16)" mask="url(#mask-15)"></path>
                        </g>
                        <g id="Group-10023" transform="translate(27.723288, 0.821918)">
                            <mask id="mask-18" fill="white">
                                <use xlink:href="#path-17"></use>
                            </mask>
                            <g id="Clip-10022"></g>
                            <path d="M0.181643836,3.45369863 C0.181643836,5.30054795 1.67835616,6.79726027 3.52438356,6.79726027 L3.52438356,6.79726027 C5.37123288,6.79726027 6.86794521,5.30054795 6.86794521,3.45369863 L6.86794521,3.45369863 C6.86794521,1.60684932 5.37123288,0.110136986 3.52438356,0.110136986 L3.52438356,0.110136986 C1.67835616,0.110136986 0.181643836,1.60684932 0.181643836,3.45369863" id="Fill-10021" fill="url(#linearGradient-19)" mask="url(#mask-18)"></path>
                        </g>
                    </g>
                </g>
            </g>
        </g>
    </g>
</svg>