<?xml version="1.0" encoding="UTF-8"?>
<svg width="262px" height="66px" viewBox="0 0 262 66" version="1.1" xmlns="http://www.w3.org/2000/svg" xmlns:xlink="http://www.w3.org/1999/xlink">
    <title>Group</title>
    <g id="Home-page" stroke="none" stroke-width="1" fill="none" fill-rule="evenodd">
        <g id="Group">
            <g transform="translate(8.260000, 0.000000)" fill-rule="nonzero" id="Path">
                <polygon fill="#FAB517" points="15.29 5.89 9.12 3.56 6.16 9.45 -1.77635684e-15 7.12 7.54 19.53 21.1 14.24 18.25 0"></polygon>
                <g transform="translate(8.390000, 6.680000)">
                    <polygon fill="#F15338" points="1.95 0 0 3.88 4.06 5.42 6.02 1.53"></polygon>
                    <polygon fill="#F15338" opacity="0.5" style="mix-blend-mode: multiply;" points="1.15 3.43 2.36 1.04 1.95 0 0 3.88"></polygon>
                    <polygon fill="#F15338" opacity="0.5" style="mix-blend-mode: multiply;" points="4.86 1.98 3.66 4.38 4.06 5.42 6.02 1.53"></polygon>
                    <polyline fill="#F47560" points="2.36 1.04 4.87 1.99 3.66 4.39 1.15 3.44 2.36 1.04"></polyline>
                </g>
            </g>
            <g id="brand" transform="translate(0.000000, 6.770000)">
                <g id="compass-direction" transform="translate(71.660000, 0.000000)" fill="#FFFFFF" fill-rule="nonzero">
                    <path d="M20.32,31.95 L22.5,37.94 C22.5,37.94 19.7,39.84 14.61,39.84 C7.67,39.84 4.03,36.09 4.03,28.59 L4.03,18.91 L0,18.91 L0,13.09 L4.37,13.09 L4.37,5.65 L11.76,5.37 L11.76,13.09 L21.05,13.09 L21.05,18.91 L11.76,18.91 L11.76,28.26 C11.76,31.79 13.1,33.35 16.07,33.35 C18.76,33.35 20.32,31.95 20.32,31.95 L20.32,31.95 Z M51.49,33.52 L51.83,39.34 C51.83,39.34 50.21,39.84 48.08,39.84 C44.44,39.84 42.48,38.44 41.98,35.64 C41.14,37.26 38.96,39.84 33.47,39.84 C27.98,39.84 24.52,36.99 24.52,32.56 C24.52,26.01 31.4,24.39 41.25,24.17 L41.59,24.17 L41.59,22.99 C41.59,20.3 40.02,18.51 36.78,18.51 C33.87,18.51 32.25,19.69 32.25,21.59 C32.25,21.98 32.31,22.32 32.47,22.6 L25.75,23.72 C25.75,23.72 25.41,22.6 25.41,21.15 C25.41,16.11 29.83,12.76 37.11,12.76 C44.89,12.76 49.09,16.68 49.09,23.34 L49.09,31.96 C49.09,33.19 49.54,33.69 50.55,33.69 C50.89,33.69 51.22,33.63 51.5,33.52 L51.49,33.52 Z M35.65,34.19 C39.34,34.19 41.58,32.29 41.58,30.16 L41.58,28.03 L41.24,28.03 C34.92,28.2 31.95,29.09 31.95,31.56 C31.95,33.29 33.35,34.19 35.64,34.19 L35.65,34.19 Z M56.24,39.51 L56.24,0 L63.91,0 L63.91,39.51 L56.24,39.51 L56.24,39.51 Z M83.94,34.03 C87.69,34.03 89.65,32.24 90.77,31.01 L94.41,35.21 C92.62,37.56 88.76,39.86 83.05,39.86 C74.15,39.86 68.84,34.26 68.84,26.32 C68.84,18.38 74.16,12.78 82.33,12.78 C90.05,12.78 94.47,18.04 94.47,25.26 C94.47,26.94 94.25,28.06 94.25,28.06 L76.45,28.06 C77.12,31.59 79.58,34.05 83.95,34.05 L83.94,34.03 Z M82.32,18.58 C79.3,18.58 77,20.54 76.44,24.06 L87.46,24.06 C87.4,20.93 85.5,18.58 82.31,18.58 L82.32,18.58 Z M115.23,12.76 C121.78,12.76 125.08,17.29 125.08,23.28 L125.08,39.51 L117.41,39.51 L117.41,24.62 C117.41,21.49 115.84,19.36 112.76,19.36 C108.84,19.36 107.16,22.77 107.16,25.85 L107.16,39.51 L99.49,39.51 L99.49,13.09 L105.48,12.87 C106.04,14.6 106.43,17.29 106.43,18.41 L106.65,18.41 C107.94,15.28 110.51,12.76 115.21,12.76 L115.23,12.76 Z M149.76,0 L157.43,0 L157.43,39.51 L151.22,39.73 C150.83,38.11 150.44,35.25 150.49,34.53 L150.32,34.53 C148.86,37.66 146.07,39.85 141.53,39.85 C134.37,39.85 129.83,34.2 129.83,26.42 C129.83,17.69 135.2,12.76 141.92,12.76 C145.73,12.76 148.24,14.22 149.76,16.34 L149.76,0 L149.76,0 Z M143.66,33.41 C147.35,33.41 149.76,30.28 149.76,27.2 L149.76,25.41 C149.76,22.5 147.58,19.2 143.49,19.2 C139.91,19.2 137.61,22 137.61,26.42 C137.61,30.84 139.96,33.42 143.65,33.42 L143.66,33.41 Z M176.23,12.76 C184.57,12.76 190.11,18.36 190.11,26.3 C190.11,34.24 184.57,39.84 176.23,39.84 C167.89,39.84 162.29,34.24 162.29,26.3 C162.29,18.36 167.83,12.76 176.23,12.76 Z M176.23,33.58 C179.98,33.58 182.33,30.61 182.33,26.3 C182.33,21.99 179.98,19.02 176.23,19.02 C172.48,19.02 170.07,22.04 170.07,26.3 C170.07,30.56 172.42,33.58 176.23,33.58 Z" id="talendo"></path>
                </g>
                <g id="Talendo-star" transform="translate(0.000000, 3.697351)" fill="#F9B510">
                    <path d="M0,19.0526488 L48.17,0.0726488387 C48.71,-0.137351161 49.32,0.122648839 49.53,0.662648839 C49.66,0.982648839 49.62,1.35264884 49.42,1.64264884 L13.14,54.5526488 L16.61,27.9226488 C16.68,27.3526488 17.21,26.9426488 17.79,27.0226488 C18.12,27.0626488 18.4,27.2526488 18.57,27.5426488 L19.44,29.0726488 C19.73,29.5726488 20.37,29.7526488 20.87,29.4626488 C21,29.3826488 21.12,29.2826488 21.21,29.1526488 L31.28,14.7526488 C31.61,14.2726488 31.5,13.6226488 31.02,13.2926488 C30.79,13.1326488 30.5,13.0726488 30.22,13.1226488 L0,19.0526488 Z" id="Path"></path>
                    <path d="M34.02,32.8226488 L48.58,35.9426488 C49.15,36.0626488 49.7,35.7026488 49.83,35.1326488 C49.89,34.8326488 49.83,34.5226488 49.64,34.2726488 L40.65,22.5326488 C40.3,22.0726488 39.64,21.9826488 39.18,22.3326488 C39.08,22.4026488 39,22.4926488 38.94,22.5926488 L33.37,31.2126488 C33.06,31.7026488 33.2,32.3526488 33.68,32.6626488 C33.79,32.7326488 33.91,32.7826488 34.03,32.8026488 L34.02,32.8226488 Z" id="Path-3"></path>
                </g>
            </g>
        </g>
    </g>
</svg>