<?xml version="1.0" encoding="UTF-8"?>
<svg width="114px" height="30px" viewBox="0 0 114 30" version="1.1" xmlns="http://www.w3.org/2000/svg" xmlns:xlink="http://www.w3.org/1999/xlink">
    <title>Group</title>
    <g id="Main" stroke="none" stroke-width="1" fill="none" fill-rule="evenodd">
        <g id="Competitions" transform="translate(-50.000000, -24.000000)" fill-rule="nonzero">
            <g id="Group" transform="translate(50.000000, 24.000000)">
                <polygon id="Path" fill="#000000" points="64.2857143 6.42857143 61.1374314 0 50.3571429 0 56.9827301 12.8571429"></polygon>
                <path d="M88.4652214,0 L69.6579188,0 L43.9285714,30 L54.1636239,30 L60.9030123,22.025 L64.6065267,30 L82.2738019,30 L84.6420356,16.65 L86.789822,24 L93.2142857,16.35 L88.4652214,0 Z M74.047969,27.59375 L67.7809676,14.375 L78.6080785,1.93125 L74.047969,27.59375 Z" id="Shape" fill="#000000"></path>
                <polygon id="Path" fill="#000000" points="104.054369 0 86.7857143 25.9136421 95.4485168 25.9136421 102.023135 15.77597 99.4856738 30 108.218082 30 113.571429 0"></polygon>
                <path d="M13.0793512,1.09227872 C12.8800896,2.48909353 12.8146227,3.90159283 12.8838333,5.31073446 C13.0856582,7.30069052 14.3281433,8.31763967 15.9616642,8.95166353 C16.5345721,9.23825983 17.1785384,9.35380478 17.8159312,9.28436911 C18.0690995,9.19782821 18.304227,9.06592305 18.5097046,8.89516635 C19.1270793,8.49101941 19.8274198,8.22935478 20.5594896,8.12931576 C21.6755623,8.05470105 22.7956081,8.19538266 23.8580666,8.54362837 C24.8166043,8.77089531 25.7441216,9.11234144 26.620546,9.56057753 C27.0036156,9.79945435 27.3185382,10.1323559 27.5350655,10.527307 C27.9134873,11.1550534 28.0648561,12.2347772 28.9226122,12.4105461 C29.0329779,11.4857432 29.0604166,10.5529979 29.0046036,9.62335217 C29.0585328,8.76173073 29.1787182,7.90548912 29.3641044,7.06214689 C29.6103627,5.88842603 29.9155856,4.72773092 30.2786238,3.58443189 C30.3353871,3.4086629 30.4930629,2.52354049 30.8336425,2.64908977 C30.9850112,2.69930948 30.9534761,3.06340239 30.9471691,3.27683616 C30.9471691,4.0175769 30.8651777,4.53232894 30.8084144,5.29190207 C30.6167366,7.0729608 30.6633955,8.87146195 30.9471691,10.6403013 C31.1792447,11.484285 31.2813188,12.3584305 31.2499065,13.2328939 C31.2499065,13.4714375 31.1048448,13.7602009 31.0606956,14.0301318 C31.0165464,14.3000628 31.0606956,14.438167 31.0039323,14.6076585 C30.873954,14.9214437 30.7066772,15.2186016 30.5056769,15.4927809 C30.4142164,15.6349418 30.3300158,15.7816021 30.2533957,15.9322034 C30.1587902,16.1079724 29.9948074,16.1895794 30.0074215,16.3716259 C30.0074215,16.6541117 30.5750543,17.2002511 30.8651777,17.2818581 C32.1265838,17.6333961 33.4762884,17.8154426 34.2142109,18.5373509 C34.7080323,19.0012925 35.0151936,19.6283559 35.0782741,20.3013183 C35.096188,20.9253661 34.9528596,21.5435442 34.6620101,22.0966729 C34.4854133,22.4921532 34.3151234,23.477715 34.0313071,23.6660389 C33.7474907,23.8543628 33.4573673,23.7225361 33.198779,23.8606403 C33.0765596,24.2054492 32.9857921,24.5605141 32.9275767,24.9215317 C32.7194447,25.2165725 32.4040931,25.4048964 32.17704,25.6873823 C32.2527244,26.3151287 31.8364604,26.5097301 31.2940557,26.5473949 C29.6731489,27.8593848 26.4565632,26.9930948 25.0879376,26.1016949 C24.4067783,26.5850596 23.6499346,26.9930948 23.731926,28.2297552 C24.2772234,28.6020656 24.8607506,28.915609 25.4726665,29.1650973 C26.3998,29.472693 27.5350655,29.309479 28.1342334,29.8556183 C28.1836568,29.9006235 28.2300111,29.9488576 28.2729881,30 L32.9275767,30 L46.0714286,14.7708726 L38.8751066,0 L13.1676496,0 C13.1361145,0.376647834 13.1108864,0.734463277 13.0793512,1.09227872 Z" id="Path" fill="#FF0000"></path>
                <path d="M1.44827586,29.8556183 C2.34508473,28.9918542 3.39739747,28.3179099 4.54563895,27.8719397 C5.4258752,27.5399818 6.26207179,27.094964 7.03448276,26.5473949 C7.27964694,26.2713816 7.59311801,26.0695431 7.94117647,25.9635907 C8.59622061,25.9557594 9.24737516,26.0684228 9.86409736,26.2962963 C11.0939527,26.5311835 12.3512813,26.0660655 13.1561866,25.0784683 C13.5815675,24.709264 13.9347406,24.259708 14.1967546,23.7539234 C14.3824086,22.9698676 14.4359274,22.1587078 14.3549696,21.3559322 C14.3549696,19.6359071 14.9634888,18.4243566 15,16.8361582 C14.9259682,16.028765 14.8995504,15.2174779 14.9208925,14.4067797 C14.0105398,14.0236299 13.1754199,13.4726909 12.4563895,12.7809165 C11.811359,12.0401758 11.0628803,10.6591337 11.2819473,9.44758318 C10.6861863,8.52409176 10.3608478,7.44314001 10.3448276,6.33396108 C10.4017512,5.18392481 10.6274418,4.04944825 11.0141988,2.96924043 C11.2941176,1.98995606 11.5679513,0.998116761 11.8600406,0 L6.28600406,0 L0,30 L1.32657201,30 C1.36308316,29.9560578 1.40567951,29.8995606 1.44827586,29.8556183 Z" id="Path" fill="#FF0000"></path>
            </g>
        </g>
    </g>
</svg>