<?xml version="1.0" encoding="UTF-8"?>
<svg width="157px" height="49px" viewBox="0 0 157 49" version="1.1" xmlns="http://www.w3.org/2000/svg" xmlns:xlink="http://www.w3.org/1999/xlink">
    <title>Group</title>
    <g id="Page-1" stroke="none" stroke-width="1" fill="none" fill-rule="evenodd">
        <g id="Artboard" transform="translate(-493.000000, -2641.000000)" fill="#13C636" fill-rule="nonzero">
            <g id="Group" transform="translate(493.000000, 2641.000000)">
                <path d="M155.77175,18.1 C154.87175,14.7 147.87175,6.9 142.77175,0.6 C142.67175,0.5 142.37175,0 141.77175,0 C141.27175,0 140.87175,0.5 141.07175,0.9 C141.27175,1.3 146.17175,11.5 145.27175,14.8 C144.37175,18.2 139.87175,17.5 139.17175,17.5 C138.77175,17.5 139.07175,17.8 139.47175,18.2 C141.97175,20.4 143.57175,23.5 143.57175,27.5 L143.57175,30.5 C143.57175,30.6 143.57175,30.6 143.67175,30.6 C149.37175,30.1 158.07175,26.6 155.77175,18.1" id="Path"></path>
                <path d="M133.67175,37.8 C133.67175,40.7 129.77175,42.3 127.27175,42.3 C124.57175,42.3 120.77175,40.7 120.77175,37.8 L120.77175,27.6 C120.77175,24.7 124.57175,23.4 127.27175,23.4 C129.77175,23.4 133.67175,24.8 133.67175,27.6 L133.67175,37.8 Z M127.27175,17 C121.27175,17.1 114.27175,20.5 114.27175,27.5 L114.27175,38.2 C114.27175,45.3 121.27175,48.7 127.27175,48.7 C133.17175,48.6 140.17175,45.3 140.17175,38.2 L140.17175,27.6 C140.17175,20.6 133.17175,17.1 127.27175,17" id="Shape"></path>
                <path d="M88.4717497,37.8 C88.4717497,40.7 84.5717497,42.3 82.0717497,42.3 C79.3717497,42.3 75.5717497,40.7 75.5717497,37.8 L75.5717497,27.6 C75.5717497,24.7 79.3717497,23.4 82.0717497,23.4 C84.5717497,23.4 88.4717497,24.8 88.4717497,27.6 L88.4717497,37.8 Z M81.9717497,17 C75.9717497,17.1 68.9717497,20.5 68.9717497,27.5 L68.9717497,38.2 C68.9717497,45.3 75.9717497,48.7 81.9717497,48.7 C87.8717497,48.6 94.8717497,45.3 94.8717497,38.2 L94.8717497,27.6 C94.8717497,20.6 87.8717497,17.1 81.9717497,17" id="Shape"></path>
                <path d="M16.7717497,18.2 C17.1717497,17.8 17.4717497,17.5 17.0717497,17.5 C16.3717497,17.5 11.8717497,18.2 10.9717497,14.8 C10.0717497,11.4 14.9717497,1.3 15.1717497,0.9 C15.2717497,0.5 14.9717497,0 14.3717497,0 C13.8717497,0 13.4717497,0.6 13.3717497,0.6 C8.37174974,6.9 1.27174974,14.7 0.37174974,18.1 C-1.92825026,26.6 6.97174974,30.1 12.5717497,30.7 C12.6717497,30.7 12.6717497,30.6 12.6717497,30.6 L12.6717497,27.6 C12.7717497,23.5 14.2717497,20.4 16.7717497,18.2" id="Path"></path>
                <path d="M68.5717497,19.4 C63.7717497,18.1 60.2717497,17.6 55.0717497,17.6 C49.9717497,17.6 46.3717497,18.1 41.5717497,19.4 C41.3717497,19.5 41.2717497,19.7 41.3717497,19.8 C42.9717497,21.2 43.6717497,23 43.9717497,25 C46.5717497,24.4 48.9717497,24 51.7717497,23.8 L51.7717497,48.5 C51.7717497,48.6 51.8717497,48.6 51.9717497,48.6 L58.1717497,48.6 C58.2717497,48.6 58.3717497,48.6 58.3717497,48.5 L58.3717497,23.8 C61.0717497,24 63.2717497,24.3 65.8717497,25 C66.2717497,23 67.0717497,21.1 68.7717497,19.8 C68.7717497,19.6 68.6717497,19.4 68.5717497,19.4" id="Path"></path>
                <path d="M114.47175,17.3 C113.97175,17.2 112.67175,17 111.47175,17.1 C105.57175,17.3 98.8717497,20.8 98.8717497,27.6 L98.8717497,48.7 C98.8717497,48.8 98.9717497,48.8 99.0717497,48.8 L105.27175,48.8 C105.37175,48.8 105.47175,48.8 105.47175,48.7 L105.47175,27.6 C105.47175,25.3 108.27175,24 110.57175,23.5 C111.27175,21.3 112.57175,19.6 114.57175,18 C114.87175,17.7 114.77175,17.3 114.47175,17.3" id="Path"></path>
                <path d="M34.6717497,29.4 C34.6717497,29.5 34.6717497,29.5 34.5717497,29.6 C34.5717497,29.7 34.4717497,29.7 34.3717497,29.7 L22.5717497,29.7 L22.5717497,27.6 C22.5717497,24.7 26.0717497,23.3 28.7717497,23.3 C31.3717497,23.3 34.6717497,24.7 34.6717497,27.6 L34.6717497,29.4 L34.6717497,29.4 Z M28.7717497,16.8 C22.6717497,16.9 15.9717497,20.4 15.9717497,27.5 L15.9717497,38.3 C15.9717497,45.5 22.6717497,48.9 28.7717497,49 C33.1717497,49 38.0717497,47.2 40.4717497,43.3 C40.5717497,43.2 40.4717497,43 40.3717497,42.9 C38.2717497,41.7 37.0717497,41 34.9717497,39.9 C34.8717497,39.9 34.8717497,39.9 34.7717497,40 C33.6717497,41.9 30.7717497,42.9 28.7717497,42.9 C26.0717497,42.9 22.5717497,41.2 22.5717497,38.3 L22.5717497,35.1 L39.4717497,35.1 C40.3717497,35.1 41.0717497,34.4 41.0717497,33.5 L41.0717497,27.6 C41.0717497,20.4 34.7717497,16.9 28.7717497,16.8" id="Shape"></path>
            </g>
        </g>
    </g>
</svg>