<svg id="Layer_1" data-name="Layer 1" xmlns="http://www.w3.org/2000/svg" viewBox="0 0 595.55 222.42"><title>логочорне</title><polygon points="138.68 162.6 138.68 201.83 99.45 212.07 78.86 217.45 59.86 222.42 59.86 182.22 78.86 177.49 99.45 172.37 138.68 162.6"/><polygon points="595.55 0 595.55 29.72 516.3 29.72 516.3 59.44 565.64 59.44 565.64 89.16 516.3 89.16 516.3 128.78 595.55 128.78 595.55 158.49 476.68 158.49 476.68 0 595.55 0"/><path d="M266.86,202.48v39.63H207.43a39.62,39.62,0,1,0,0,79.24h59.43V361H207.43A79.23,79.23,0,0,1,148,229.31a79.45,79.45,0,0,1,19.81-16.22,78.94,78.94,0,0,1,39.63-10.61Z" transform="translate(-128.18 -202.48)"/><path d="M426.62,202.48v89.16a70.24,70.24,0,0,1-.7,9.9,69.1,69.1,0,0,1-19.11,38.62l-1,1a69.1,69.1,0,0,1-38.62,19.11,70.43,70.43,0,0,1-19.81,0,68.72,68.72,0,0,1-19.82-6,69.49,69.49,0,0,1-18.81-13.14l-1-1a69.37,69.37,0,0,1-13.13-18.81,69.42,69.42,0,0,1-6.68-29.71V202.48h39.62v89.16a29.75,29.75,0,0,0,39.63,28,29.8,29.8,0,0,0,18.12-18.12A29.39,29.39,0,0,0,387,292V202.48Z" transform="translate(-128.18 -202.48)"/><path d="M586.26,311.45A44.39,44.39,0,0,0,579,291.64a45,45,0,0,0-9.06-9.91c-1.08-.87-2.2-1.7-3.36-2.47l-.09-.05a44.29,44.29,0,0,0-19.72-7.12,43.67,43.67,0,0,0-4.88-.27h-4.38a34.79,34.79,0,0,0,19-9.9,34.76,34.76,0,0,0,9.75-19.82,34.78,34.78,0,0,0,.32-4.7,34.22,34.22,0,0,0-.39-5.2,34.6,34.6,0,0,0-3-9.91,35.05,35.05,0,0,0-16.38-16.38,34.41,34.41,0,0,0-6-2.23s0,0,0,0a78.87,78.87,0,0,0-11-1.15c.62,0,1.25-.05,1.88-.05h-84V361h97.93l1.14-.12a44.31,44.31,0,0,0,19.81-7.17,40.94,40.94,0,0,0,3.54-2.62,44.53,44.53,0,0,0,8.61-9.36h0c.12-.18.25-.36.36-.54a44.66,44.66,0,0,0,7.18-19.81c0-.38.08-.75.11-1.13v-7.5C586.35,312.3,586.31,311.87,586.26,311.45ZM487.33,232.2H512.1a14.84,14.84,0,0,1,14,9.9v0a15,15,0,0,1,0,9.89,14.88,14.88,0,0,1-14,9.91h-5v.33l-.33-.33H487.33Zm59.44,79.25a19.76,19.76,0,0,1-2.07,8.8c-.21.42-.41.8-.59,1.11a19.81,19.81,0,0,1-17.16,9.9H487.33V291.64H527a19.82,19.82,0,0,1,19.82,19.81Z" transform="translate(-128.18 -202.48)"/><polygon points="595.55 0 595.55 29.72 516.3 29.72 516.3 59.44 565.64 59.44 565.64 89.16 516.3 89.16 516.3 128.78 595.55 128.78 595.55 158.49 476.68 158.49 476.68 0 595.55 0"/><polygon points="138.68 162.6 138.68 201.83 99.45 212.07 78.86 217.45 59.86 222.42 59.86 182.22 78.86 177.49 99.45 172.37 138.68 162.6"/><path d="M266.86,202.48v39.63H207.43a39.62,39.62,0,1,0,0,79.24h59.43V361H207.43A79.23,79.23,0,0,1,148,229.31a79.45,79.45,0,0,1,19.81-16.22,78.94,78.94,0,0,1,39.63-10.61Z" transform="translate(-128.18 -202.48)"/><polygon points="138.68 162.6 138.68 201.83 99.45 212.07 78.86 217.45 59.86 222.42 59.86 182.22 78.86 177.49 99.45 172.37 138.68 162.6"/><path d="M266.86,202.48v39.63H207.43a39.62,39.62,0,1,0,0,79.24h59.43V361H207.43A79.23,79.23,0,0,1,148,229.31a79.45,79.45,0,0,1,19.81-16.22,78.94,78.94,0,0,1,39.63-10.61Z" transform="translate(-128.18 -202.48)"/><path d="M426.62,202.48v89.16a70.24,70.24,0,0,1-.7,9.9,69.1,69.1,0,0,1-19.11,38.62l-1,1a69.1,69.1,0,0,1-38.62,19.11,70.43,70.43,0,0,1-19.81,0,68.72,68.72,0,0,1-19.82-6,69.49,69.49,0,0,1-18.81-13.14l-1-1a69.37,69.37,0,0,1-13.13-18.81,69.42,69.42,0,0,1-6.68-29.71V202.48h39.62v89.16a29.75,29.75,0,0,0,39.63,28,29.8,29.8,0,0,0,18.12-18.12A29.39,29.39,0,0,0,387,292V202.48Z" transform="translate(-128.18 -202.48)"/><path d="M586.26,311.45A44.39,44.39,0,0,0,579,291.64a45,45,0,0,0-9.06-9.91c-1.08-.87-2.2-1.7-3.36-2.47l-.09-.05a44.29,44.29,0,0,0-19.72-7.12,43.67,43.67,0,0,0-4.88-.27h-4.38a34.79,34.79,0,0,0,19-9.9,34.76,34.76,0,0,0,9.75-19.82,34.78,34.78,0,0,0,.32-4.7,34.22,34.22,0,0,0-.39-5.2,34.6,34.6,0,0,0-3-9.91,35.05,35.05,0,0,0-16.38-16.38,34.41,34.41,0,0,0-6-2.23s0,0,0,0a78.87,78.87,0,0,0-11-1.15c.62,0,1.25-.05,1.88-.05h-84V361h97.93l1.14-.12a44.31,44.31,0,0,0,19.81-7.17,40.94,40.94,0,0,0,3.54-2.62,44.53,44.53,0,0,0,8.61-9.36h0c.12-.18.25-.36.36-.54a44.66,44.66,0,0,0,7.18-19.81c0-.38.08-.75.11-1.13v-7.5C586.35,312.3,586.31,311.87,586.26,311.45ZM487.33,232.2H512.1a14.84,14.84,0,0,1,14,9.9v0a15,15,0,0,1,0,9.89,14.88,14.88,0,0,1-14,9.91h-5v.33l-.33-.33H487.33Zm59.44,79.25a19.76,19.76,0,0,1-2.07,8.8c-.21.42-.41.8-.59,1.11a19.81,19.81,0,0,1-17.16,9.9H487.33V291.64H527a19.82,19.82,0,0,1,19.82,19.81Z" transform="translate(-128.18 -202.48)"/></svg>