<?xml version="1.0" encoding="UTF-8"?>
<svg width="75px" height="20px" viewBox="0 0 75 20" version="1.1" xmlns="http://www.w3.org/2000/svg" xmlns:xlink="http://www.w3.org/1999/xlink">
    <title>Group</title>
    <g id="Mobile-app" stroke="none" stroke-width="1" fill="none" fill-rule="evenodd">
        <g id="Competition-inner-ranking-no-data-avaliable" transform="translate(-150.000000, -54.000000)" fill-rule="nonzero">
            <g id="Group" transform="translate(150.000000, 54.000000)">
                <polygon id="Path" fill="#FFFFFF" points="42.4528302 4.28571429 40.3737754 0 33.254717 0 37.6301048 8.57142857"></polygon>
                <path d="M58.4204292,0 L46.0005124,0 L29.009434,20 L35.7684309,20 L40.2189704,14.6833333 L42.6646874,20 L54.331756,20 L55.8956839,11.1 L57.3140334,16 L61.5566038,10.9 L58.4204292,0 Z M48.8996021,18.3958333 L44.7610163,9.58333333 L51.9109952,1.2875 L48.8996021,18.3958333 Z" id="Shape" fill="#FFFFFF"></path>
                <polygon id="Path" fill="#FFFFFF" points="68.7151492 0 57.3113208 17.2757614 63.0320394 17.2757614 67.3737681 10.5173133 65.6980865 20 71.4647714 20 75 0"></polygon>
                <path d="M8.6373074,0.728185813 C8.50571952,1.65939569 8.4624867,2.60106189 8.50819178,3.54048964 C8.64147242,4.86712701 9.46198141,5.54509312 10.5407217,5.96777569 C10.9190571,6.15883989 11.3443178,6.23586985 11.7652376,6.18957941 C11.9324242,6.13188547 12.0876971,6.0439487 12.2233898,5.9301109 C12.6310901,5.66067961 13.0935791,5.48623652 13.5770214,5.41954384 C14.3140506,5.3698007 15.0537035,5.46358844 15.755327,5.69575225 C16.3883236,5.84726354 17.000835,6.07489429 17.5796059,6.37371835 C17.8325763,6.53296957 18.0405441,6.75490396 18.1835338,7.01820465 C18.433435,7.43670224 18.5333955,8.1565181 19.0998383,8.27369743 C19.1727212,7.65716215 19.1908411,7.0353319 19.1539835,6.41556811 C19.1895972,5.84115382 19.2689649,5.27032608 19.3913897,4.70809793 C19.5540131,3.92561735 19.7555754,3.15182061 19.9953176,2.38962126 C20.0328028,2.27244193 20.1369283,1.68236033 20.3618394,1.76605985 C20.4617999,1.79953965 20.4409748,2.04226826 20.4368098,2.18455744 C20.4368098,2.6783846 20.3826645,3.02155263 20.3451793,3.52793471 C20.2185996,4.7153072 20.2494121,5.91430797 20.4368098,7.09353421 C20.5900672,7.65618998 20.6574747,8.23895369 20.6367307,8.82192927 C20.6367307,8.98095836 20.5409353,9.17346725 20.5117801,9.35342122 C20.482625,9.53337518 20.5117801,9.62544465 20.4742949,9.738439 C20.3884602,9.94762916 20.2779944,10.1457344 20.1452583,10.3285206 C20.0848599,10.4232945 20.0292557,10.5210681 19.9786575,10.6214689 C19.9161822,10.7386483 19.8078917,10.7930529 19.8162217,10.9144172 C19.8162217,11.1027412 20.1910736,11.4668341 20.3826645,11.5212388 C21.2156685,11.7555974 22.1069829,11.8769617 22.5942902,12.3582339 C22.9203987,12.6675283 23.123241,13.0855706 23.164898,13.5342122 C23.1767279,13.9502441 23.0820771,14.3623628 22.8900067,14.7311153 C22.7733861,14.9947688 22.6609306,15.65181 22.4735047,15.7773593 C22.2860787,15.9029086 22.0944878,15.8150241 21.923722,15.9070935 C21.8430111,16.1369661 21.7830703,16.3736761 21.7446261,16.6143545 C21.6071804,16.8110483 21.3989294,16.9365976 21.2489887,17.1249215 C21.2989689,17.5434191 21.0240776,17.6731534 20.6658859,17.6982632 C19.5954757,18.5729232 17.4713153,17.9953965 16.5675059,17.4011299 C16.1176838,17.7233731 15.6178813,17.9953965 15.6720266,18.8198368 C16.0321286,19.0680437 16.4174768,19.2770727 16.8215722,19.4433982 C17.4338302,19.648462 18.1835338,19.5396526 18.5792107,19.9037456 C18.6118488,19.933749 18.6424602,19.9659051 18.6708412,20 L21.7446261,20 L30.4245283,9.84724838 L25.6722402,0 L8.69561769,0 C8.67479259,0.251098556 8.65813251,0.489642185 8.6373074,0.728185813 Z" id="Path" fill="#FF0000"></path>
                <path d="M0.956408588,19.9037456 C1.54864086,19.3279028 2.24356437,18.8786066 3.00183704,18.5812932 C3.58312513,18.3599879 4.13533043,18.0633093 4.64541314,17.6982632 C4.80731402,17.5142544 5.01432321,17.3796954 5.24417314,17.3090605 C5.67674946,17.3038396 6.10675718,17.3789485 6.51402656,17.5308642 C7.32619517,17.6874557 8.15650654,17.377377 8.68804776,16.7189789 C8.9689597,16.4728427 9.2021872,16.1731386 9.37521528,15.8359489 C9.49781702,15.313245 9.53315963,14.7724718 9.47969689,14.2372881 C9.47969689,13.0906047 9.88154924,12.2829044 9.90566038,11.2241055 C9.85677145,10.6858433 9.83932571,10.1449853 9.85341957,9.60451977 C9.25224329,9.34908659 8.70074898,8.98179395 8.22591756,8.52061101 C7.79995407,8.02678385 7.30567569,7.10608914 7.45034253,6.29838878 C7.05691551,5.68272784 6.84206932,4.96209334 6.83148992,4.22264072 C6.86908097,3.45594988 7.01812196,2.69963217 7.2735275,1.97949362 C7.45837958,1.32663737 7.63921313,0.665411174 7.83210226,0 L4.15113475,0 L0,20 L0.876038119,20 C0.900149259,19.9707052 0.928278924,19.9330404 0.956408588,19.9037456 Z" id="Path" fill="#FF0000"></path>
            </g>
        </g>
    </g>
</svg>